<svg version="1.1" id="Layer_1" xmlns="http://www.w3.org/2000/svg" x="0" y="0" viewBox="0 0 32 32" xml:space="preserve"><style>.st0{fill:#333}.st1{fill:#faaf41}</style><path class="st0" d="M29.3 27H1.6c-.7 0-1.2-.5-1.2-1.2V6.2C.4 5.5.9 5 1.6 5h27.7c.7 0 1.2.5 1.2 1.2v6.6h-.8V6.2c0-.2-.2-.4-.4-.4H1.6c-.2 0-.4.2-.4.4v19.6c0 .2.2.4.4.4h27.7c.2 0 .4-.2.4-.4v-6.7h.8v6.7c0 .7-.6 1.2-1.2 1.2z"/><path class="st1" d="M30.4 19.5h-7.9c-.7 0-1.2-.5-1.2-1.2v-4.8c0-.7.5-1.2 1.2-1.2h7.9c.7 0 1.2.5 1.2 1.2v4.8c0 .7-.5 1.2-1.2 1.2z"/><path class="st0" d="M25.3 18c-1.1 0-2-.9-2-2s.9-2 2-2 2 .9 2 2-.9 2-2 2zm0-3.2c-.7 0-1.2.5-1.2 1.2s.5 1.2 1.2 1.2 1.2-.5 1.2-1.2-.5-1.2-1.2-1.2z"/><path class="st1" d="M9.7 21.9H3.3c-.2 0-.4-.2-.4-.4s.2-.4.4-.4h6.4c.2 0 .4.2.4.4s-.2.4-.4.4z"/><path class="st1" d="M14.2 24.2H3.3c-.2 0-.4-.2-.4-.4s.2-.4.4-.4h10.9c.2 0 .4.2.4.4 0 .3-.1.4-.4.4z"/><g><path class="st1" d="M3.7 8.5h-.6c-.1 0-.2-.1-.2-.2v-.6c0-.1.1-.2.2-.2h.6c.2-.1.3 0 .3.2v.6c0 .1-.1.2-.3.2z"/><path class="st1" d="M5.9 8.5h-.6c-.1 0-.3-.1-.3-.2v-.6c0-.1.1-.2.2-.2h.6c.1 0 .2.1.2.2v.6c.1.1 0 .2-.1.2z"/><path class="st1" d="M8.1 8.5h-.6c-.1 0-.2-.1-.2-.2v-.6c0-.1.1-.2.2-.2h.6c.1 0 .2.1.2.2v.6c0 .1-.1.2-.2.2z"/><path class="st1" d="M10.3 8.5h-.6c-.1 0-.2-.1-.2-.2v-.6c0-.1.1-.2.2-.2h.6c.1 0 .2.1.2.2v.6c0 .1-.1.2-.2.2z"/><path class="st1" d="M12.4 8.5h-.6c-.1 0-.2-.1-.2-.2v-.6c0-.1.1-.2.2-.2h.6c.1 0 .2.1.2.2v.6c.1.1 0 .2-.2.2z"/><path class="st1" d="M14.6 8.5H14c-.1 0-.2-.1-.2-.2v-.6c0-.1.1-.2.2-.2h.6c.1 0 .2.1.2.2v.6c.1.1 0 .2-.2.2z"/><path class="st1" d="M16.8 8.5h-.6c-.1 0-.2-.1-.2-.2v-.6c0-.1.1-.2.2-.2h.6c.1 0 .2.1.2.2v.6c.1.1-.1.2-.2.2z"/><path class="st1" d="M19 8.5h-.6c-.1 0-.2-.1-.2-.2v-.6c0-.1.1-.2.2-.2h.6c.1 0 .2.1.2.2v.6c0 .1-.1.2-.2.2z"/><path class="st1" d="M21.2 8.5h-.6c-.1 0-.2-.1-.2-.2v-.6c0-.1.1-.2.2-.2h.6c.1 0 .2.1.2.2v.6c0 .1-.1.2-.2.2z"/><path class="st1" d="M23.4 8.5h-.6c-.1 0-.2-.1-.2-.2v-.6c0-.1.1-.2.2-.2h.6c.1 0 .2.1.2.2v.6c0 .1-.1.2-.2.2z"/><path class="st1" d="M25.5 8.5h-.6c-.1 0-.2-.1-.2-.2v-.6c0-.1.1-.2.2-.2h.6c.1 0 .2.1.2.2v.6c.1.1 0 .2-.2.2z"/><path class="st1" d="M27.7 8.5h-.6c-.1 0-.2-.1-.2-.2v-.6c0-.1.1-.2.2-.2h.6c.1 0 .2.1.2.2v.6c.1.1 0 .2-.2.2z"/></g></svg>