<svg xmlns="http://www.w3.org/2000/svg" viewBox="0 0 48 48"><path fill="#333" d="M7.2 42c-1.7 0-3.1-1.4-3.1-3V21.8c0-1.7 1.4-3 3.1-3H37c1.7 0 3.1 1.4 3.1 3v17.1c0 1.7-1.4 3-3.1 3H7.2zm31.4-6.7c-.4.1-.8.2-1.2.4-.7.3-1.4.8-1.9 1.4-.6.6-1.1 1.3-1.5 2-.2.5-.4 1-.5 1.4v.2H37c.5 0 1-.2 1.3-.5.4-.4.6-.8.6-1.3v-3.7l-.3.1zM5.3 38.9c0 .5.2 1 .6 1.3.4.3.8.5 1.3.5h3.5v-.2c-.1-.4-.2-.9-.5-1.4-.3-.7-.9-1.4-1.5-2-.6-.6-1.3-1.1-1.9-1.4-.4-.2-.8-.3-1.2-.4l-.3-.1v3.7zm6.6-19v.2c-.1.6-.3 1.3-.6 2-.4.8-1 1.6-1.7 2.4-.7.7-1.5 1.2-2.3 1.6-.6.3-1.2.5-1.8.6h-.2V34h.2c.6.1 1.2.3 1.8.6.8.4 1.6 1 2.3 1.6.7.7 1.3 1.5 1.7 2.3.3.7.5 1.3.6 2v.2h20.3v-.2c.1-.6.3-1.3.6-2 .4-.8 1-1.6 1.7-2.3.7-.7 1.5-1.2 2.3-1.6.6-.3 1.2-.5 1.9-.6h.2v-7.3h-.2c-.6-.1-1.2-.3-1.9-.6-.8-.4-1.6-1-2.3-1.6-.7-.7-1.3-1.5-1.7-2.4-.3-.7-.5-1.3-.6-2v-.2H11.9zm21.6.3c.1.4.2.9.5 1.4.4.7.9 1.4 1.5 2 .6.6 1.3 1.1 1.9 1.4.4.2.8.3 1.2.4l.3.1v-3.7c0-.5-.2-1-.6-1.3-.4-.4-.8-.5-1.3-.5h-3.5v.2zm-26.3-.3c-.5 0-1 .2-1.3.5-.4.4-.6.8-.6 1.3v3.7l.3-.1c.4.1.8-.1 1.2-.3.7-.3 1.4-.8 1.9-1.4.6-.6 1.1-1.3 1.5-2 .2-.5.4-1 .5-1.4V20H7.2z"/><path fill="#333" d="M13.5 25.5c-.7 0-1.4-.6-1.4-1.3 0-.7.6-1.3 1.4-1.3s1.4.6 1.4 1.3c-.1.7-.7 1.3-1.4 1.3zm0-2c-.4 0-.7.3-.7.7 0 .4.3.7.7.7s.7-.3.7-.7c0-.4-.3-.7-.7-.7z"/><path fill="#333" d="M31.8 36.8c-.7 0-1.4-.6-1.4-1.3 0-.7.6-1.3 1.4-1.3.7 0 1.4.6 1.4 1.3 0 .7-.6 1.3-1.4 1.3zm0-2c-.4 0-.7.3-.7.7 0 .4.3.7.7.7.4 0 .7-.3.7-.7 0-.4-.3-.7-.7-.7z"/><path fill="#333" d="M3.1 46C1.4 46 0 44.6 0 43V25.8c0-1.6 1.3-2.9 2.9-3V24c-.4 0-.8.2-1.1.5-.4.4-.6.8-.6 1.3V43c0 .5.2 1 .6 1.3.4.3.8.5 1.3.5h29.8c.5 0 1-.2 1.3-.5.3-.3.5-.7.5-1.1h1.2c-.1 1.6-1.5 2.8-3.1 2.8H3.1z"/><path fill="#FAAF41" d="M38.2 17.3c-.3 0-.6-.3-.6-.6v-4.5h-8.8c-2.4 0-4.1.7-5 1.3-.5.3-.9.7-1.2.9l-.3.3-.1.1c-.1.2-.3.3-.5.3s-.3-.1-.4-.2c-.1-.1-.2-.3-.2-.4 0-.2.1-2 1-3.8.9-1.8 2.8-3.9 6.6-3.9h8.7V2.6c0-.3.3-.6.6-.6.1 0 .2 0 .3.1l9.3 7c.3.1.4.2.4.4s-.1.3-.2.5l-9.2 7.2c-.1.1-.2.1-.4.1z"/><path fill="#FAAF41" d="M22.1 38.4c-4.4 0-8-3.6-8-8s3.6-8 8-8 8 3.6 8 8-3.6 8-8 8z"/><g><path fill="#333" d="M21.8 32.8l-1.3-2.1h-1v2.1h-1V27h2.3c1 0 1.9.8 1.9 1.9 0 .7-.4 1.3-1.1 1.7h-.1l1.3 2.2h-1zm-1-3c.5 0 .9-.4.9-1 0-.5-.4-1-.9-1h-1.3v2h1.3z"/><path fill="#333" d="M25 32.9c-.7 0-1.3-.3-1.6-.8l-.1-.1.8-.4.1.1c.2.3.5.4.8.4.4 0 .7-.2.7-.5s-.3-.4-.8-.6c-.8-.2-1.4-.5-1.4-1.2 0-.9.8-1.3 1.5-1.3.6 0 1.1.2 1.4.7l.1.1-.8.4-.1-.1c-.2-.2-.4-.3-.7-.3-.4 0-.6.2-.6.5s.3.4.8.6c.8.2 1.4.4 1.4 1.3.1.8-.8 1.2-1.5 1.2z"/></g></svg>