<svg xmlns="http://www.w3.org/2000/svg" viewBox="0 0 48 48"><path fill="#333" d="M11.2 30.3c-.2 0-.3.1-.4.2L7.2 34c-.1.1-.2.3-.2.5v5.8c0 .2.1.3.2.4l3.3 3.6c.1.1.3.2.5.2h6.5c.3 0 .6-.3.6-.6s-.3-.6-.6-.6H11.1l-2.9-3.2V34.6l3.2-3.1h6c.3 0 .6-.3.6-.6s-.3-.6-.6-.6h-6.2z"/><path d="M34.3 48c-.4 0-.7-.3-.7-.7 0-.4.3-.7.7-.7h6.9c.9 0 1.7-.8 1.7-1.7V3.1c0-.9-.8-1.7-1.7-1.7H15.4c-.9 0-1.7.8-1.7 1.7v22c0 .4-.3.7-.7.7-.4 0-.7-.3-.7-.7v-22c0-1.7 1.4-3.1 3.1-3.1h25.8c1.7 0 3.1 1.4 3.1 3.1v41.7c0 1.7-1.4 3.1-3.1 3.1h-6.9z"/><path d="M4.3 47.8c-.3 0-.6-.3-.6-.6V27.6c0-.4.3-.6.6-.6H21.7c.3 0 .6.3.6.6s-.3.6-.6.6H4.9V46.6h20.6c.3 0 .6.3.6.6s-.3.6-.6.6H4.3z"/><path d="M15.7 9.2c-.3 0-.6-.3-.6-.6s.3-.6.6-.6h24.9c.3 0 .6.3.6.6s-.3.6-.6.6H15.7z"/><path d="M28.1 24c-.3 0-.6-.3-.6-.6s.3-.6.6-.6h12.7c.3 0 .6.3.6.6s-.3.6-.6.6H28.1z"/><path d="M28.1 20.2c-.3 0-.6-.3-.6-.6s.3-.6.6-.6h12.7c.3 0 .6.3.6.6s-.3.6-.6.6H28.1z"/><g><path fill="#FAAF41" d="M23.9 44.5c-3.9 0-7.1-3.2-7.1-7.1 0-3.9 3.2-7.1 7.1-7.1 3.9 0 7.1 3.2 7.1 7.1s-3.1 7.1-7.1 7.1z"/></g><g><path fill="#333" d="M23.7 39.5l-1.1-1.9-.7.1v1.8h-1v-5.2H23c.9 0 1.7.8 1.7 1.7 0 .6-.3 1.2-.9 1.5l-.1.1 1.1 1.9h-1.1zm-1.8-2.7h1c.4 0 .7-.3.7-.8 0-.4-.3-.8-.7-.8h-1v1.6z"/><path fill="#333" d="M26.5 39.6c-.7 0-1.3-.3-1.6-.9l.8-.5c.1.3.4.5.7.5.3 0 .5-.1.5-.3 0-.2-.3-.3-.6-.4-.6-.2-1.3-.4-1.3-1.1 0-.7.6-1.2 1.4-1.2.6 0 1.1.3 1.4.8l-.8.4c-.1-.2-.3-.4-.6-.4s-.4.1-.4.3c0 .2.3.3.6.4.6.2 1.3.3 1.3 1.2.1.7-.5 1.2-1.4 1.2z"/></g></svg>