<svg xmlns="http://www.w3.org/2000/svg" viewBox="0 0 48 48"><path fill="#333" d="M37.7 29c-.4 0-.6-.3-.6-.6v-2.6h-2.6c-.4 0-.6-.3-.6-.6 0-.4.3-.6.6-.6H37V22c0-.4.3-.6.6-.6.4 0 .7.3.7.6v2.6H41c.4 0 .6.3.6.6 0 .4-.3.6-.6.6h-2.6v2.6c-.1.3-.4.6-.7.6z"/><path fill="#333" d="M16.7 24.4c-5.6 0-10.1-4.5-10.1-10.1S11.1 4.2 16.7 4.2s10.1 4.5 10.1 10.1-4.5 10.1-10.1 10.1zm0-18.5c-4.7 0-8.4 3.8-8.4 8.4s3.8 8.4 8.4 8.4c4.7 0 8.4-3.8 8.4-8.4s-3.7-8.4-8.4-8.4z"/><path fill="#333" d="M32.3 44.3c-.5 0-.8-.4-.8-.8 0-8.2-6.7-14.9-14.9-14.9S1.7 35.3 1.7 43.5c0 .5-.4.8-.8.8s-.9-.4-.9-.8c0-9.1 7.4-16.6 16.6-16.6s16.6 7.4 16.6 16.6c0 .4-.4.8-.9.8z"/><g><path fill="#FAAF41" d="M37.7 16.5c-3.5 0-6.4-2.9-6.4-6.4s2.9-6.4 6.4-6.4c3.5 0 6.4 2.9 6.4 6.4s-2.9 6.4-6.4 6.4z"/><path fill="#FAAF41" d="M47.4 28.8c-.3 0-.6-.3-.6-.6 0-5-4.1-9.2-9.2-9.2-5 0-9.2 4.1-9.2 9.2 0 .3-.3.6-.6.6s-.6-.3-.6-.6c0-5.7 4.7-10.4 10.4-10.4S48 22.5 48 28.2c0 .4-.3.6-.6.6z"/></g></svg>